<?xml version="1.0" encoding="UTF-8"?><!DOCTYPE svg PUBLIC "-//W3C//DTD SVG 1.1//EN" "http://www.w3.org/Graphics/SVG/1.1/DTD/svg11.dtd"><svg xmlns="http://www.w3.org/2000/svg" xmlns:xlink="http://www.w3.org/1999/xlink"><defs/><symbol id="hearts" viewBox="0 0 512 512"><path d="M0 0h512v512H0z" fill="#000000" fill-opacity="0.01"/><g class="" style="" transform="translate(0,0)"><path d="M480.25 156.355c0 161.24-224.25 324.43-224.25 324.43S31.75 317.595 31.75 156.355c0-91.41 70.63-125.13 107.77-125.13 77.65 0 116.48 65.72 116.48 65.72s38.83-65.73 116.48-65.73c37.14.01 107.77 33.72 107.77 125.14z" fill="#fff" fill-opacity="1"/></g></symbol><symbol id="icons"><symbol id="hearts" viewBox="0 0 512 512"><path d="M0 0h512v512H0z" fill="#000000" fill-opacity="0.01"/><g class="" style="" transform="translate(0,0)"><path d="M480.25 156.355c0 161.24-224.25 324.43-224.25 324.43S31.75 317.595 31.75 156.355c0-91.41 70.63-125.13 107.77-125.13 77.65 0 116.48 65.72 116.48 65.72s38.83-65.73 116.48-65.73c37.14.01 107.77 33.72 107.77 125.14z" fill="#fff" fill-opacity="1"/></g></symbol><symbol id="shield" viewBox="0 0 512 512"><path d="M0 0h512v512H0z" fill="#000000" fill-opacity="0.01"/><g class="" style="" transform="translate(0,0)"><path d="M256 16c25 24 100 72 150 72v96c0 96-75 240-150 312-75-72-150-216-150-312V88c50 0 125-48 150-72z" fill="#fff" fill-opacity="1"/></g></symbol></symbol><symbol id="shield" viewBox="0 0 512 512"><path d="M0 0h512v512H0z" fill="#000000" fill-opacity="0.01"/><g class="" style="" transform="translate(0,0)"><path d="M256 16c25 24 100 72 150 72v96c0 96-75 240-150 312-75-72-150-216-150-312V88c50 0 125-48 150-72z" fill="#fff" fill-opacity="1"/></g></symbol></svg>